<?xml version="1.0" encoding="utf-8" standalone="no"?>
<!DOCTYPE svg PUBLIC "-//W3C//DTD SVG 1.1//EN"
  "http://www.w3.org/Graphics/SVG/1.1/DTD/svg11.dtd">
<svg xmlns:xlink="http://www.w3.org/1999/xlink" width="776.703906pt" height="283.432781pt" viewBox="0 0 776.703906 283.432781" xmlns="http://www.w3.org/2000/svg" version="1.1">
 <metadata>
  <rdf:RDF xmlns:dc="http://purl.org/dc/elements/1.1/" xmlns:cc="http://creativecommons.org/ns#" xmlns:rdf="http://www.w3.org/1999/02/22-rdf-syntax-ns#">
   <cc:Work>
    <dc:type rdf:resource="http://purl.org/dc/dcmitype/StillImage"/>
    <dc:date>2026-10-01T14:39:55.071548</dc:date>
    <dc:format>image/svg+xml</dc:format>
    <dc:creator>
     <cc:Agent>
      <dc:title>Matplotlib v3.11.1, https://matplotlib.org/</dc:title>
     </cc:Agent>
    </dc:creator>
   </cc:Work>
  </rdf:RDF>
 </metadata>
 <defs>
  <style type="text/css">*{stroke-linejoin: round; stroke-linecap: butt}</style>
 </defs>
 <g id="figure_1">
  <g id="patch_1">
   <path d="M 0 283.432781 
L 776.703906 283.432781 
L 776.703906 0 
L 0 0 
z
" style="fill: #ffffff"/>
  </g>
  <g id="axes_1">
   <g id="patch_2">
    <path d="M 44.103906 245.232 
L 257.456847 245.232 
L 257.456847 34.56 
L 44.103906 34.56 
z
" style="fill: #ffffff"/>
   </g>
   <g id="patch_3">
    <path d="M 53.801767 245.232 
L 72.438226 245.232 
L 72.438226 46.440476 
L 53.801767 46.440476 
z
" clip-path="url(#pc9d77df02f)" style="fill: #9ecae1"/>
   </g>
   <g id="patch_4">
    <path d="M 122.825689 245.232 
L 141.462147 245.232 
L 141.462147 48.429597 
L 122.825689 48.429597 
z
" clip-path="url(#pc9d77df02f)" style="fill: #9ecae1"/>
   </g>
   <g id="patch_5">
    <path d="M 191.84961 245.232 
L 210.486069 245.232 
L 210.486069 50.43881 
L 191.84961 50.43881 
z
" clip-path="url(#pc9d77df02f)" style="fill: #9ecae1"/>
   </g>
   <g id="patch_6">
    <path d="M 72.438226 245.232 
L 91.074685 245.232 
L 91.074685 155.400091 
L 72.438226 155.400091 
z
" clip-path="url(#pc9d77df02f)" style="fill: #fdae6b"/>
   </g>
   <g id="patch_7">
    <path d="M 141.462147 245.232 
L 160.098606 245.232 
L 160.098606 188.552104 
L 141.462147 188.552104 
z
" clip-path="url(#pc9d77df02f)" style="fill: #fdae6b"/>
   </g>
   <g id="patch_8">
    <path d="M 210.486069 245.232 
L 229.122528 245.232 
L 229.122528 204.726268 
L 210.486069 204.726268 
z
" clip-path="url(#pc9d77df02f)" style="fill: #fdae6b"/>
   </g>
   <g id="patch_9">
    <path d="M 91.074685 245.232 
L 109.711144 245.232 
L 109.711144 46.561029 
L 91.074685 46.561029 
z
" clip-path="url(#pc9d77df02f)" style="fill: #a1d99b"/>
   </g>
   <g id="patch_10">
    <path d="M 160.098606 245.232 
L 178.735065 245.232 
L 178.735065 47.846925 
L 160.098606 47.846925 
z
" clip-path="url(#pc9d77df02f)" style="fill: #a1d99b"/>
   </g>
   <g id="patch_11">
    <path d="M 229.122528 245.232 
L 247.758986 245.232 
L 247.758986 49.273466 
L 229.122528 49.273466 
z
" clip-path="url(#pc9d77df02f)" style="fill: #a1d99b"/>
   </g>
   <g id="matplotlib.axis_1">
    <g id="xtick_1">
     <g id="line2d_1">
      <defs>
       <path id="m249101e3fd" d="M 0 0 
L 0 3.5 
" style="stroke: #000000; stroke-width: 0.8"/>
      </defs>
      <g>
       <use xlink:href="#m249101e3fd" x="81.756455" y="245.232" style="stroke: #000000; stroke-width: 0.8"/>
      </g>
     </g>
     <g id="text_1">
      <!-- 1 -->
      <g transform="translate(78.575205 259.829656) scale(0.1 -0.1)">
       <defs>
        <path id="DejaVuSans-14" d="M 794 531 
L 1825 531 
L 1825 4091 
L 703 3866 
L 703 4441 
L 1819 4666 
L 2450 4666 
L 2450 531 
L 3481 531 
L 3481 0 
L 794 0 
L 794 531 
z
" transform="scale(0.015625)"/>
       </defs>
       <use xlink:href="#DejaVuSans-14"/>
      </g>
     </g>
    </g>
    <g id="xtick_2">
     <g id="line2d_2">
      <g>
       <use xlink:href="#m249101e3fd" x="150.780377" y="245.232" style="stroke: #000000; stroke-width: 0.8"/>
      </g>
     </g>
     <g id="text_2">
      <!-- 2 -->
      <g transform="translate(147.599127 259.829656) scale(0.1 -0.1)">
       <defs>
        <path id="DejaVuSans-15" d="M 1228 531 
L 3431 531 
L 3431 0 
L 469 0 
L 469 531 
Q 828 903 1448 1529 
Q 2069 2156 2228 2338 
Q 2531 2678 2651 2914 
Q 2772 3150 2772 3378 
Q 2772 3750 2511 3984 
Q 2250 4219 1831 4219 
Q 1534 4219 1204 4116 
Q 875 4013 500 3803 
L 500 4441 
Q 881 4594 1212 4672 
Q 1544 4750 1819 4750 
Q 2544 4750 2975 4387 
Q 3406 4025 3406 3419 
Q 3406 3131 3298 2873 
Q 3191 2616 2906 2266 
Q 2828 2175 2409 1742 
Q 1991 1309 1228 531 
z
" transform="scale(0.015625)"/>
       </defs>
       <use xlink:href="#DejaVuSans-15"/>
      </g>
     </g>
    </g>
    <g id="xtick_3">
     <g id="line2d_3">
      <g>
       <use xlink:href="#m249101e3fd" x="219.804298" y="245.232" style="stroke: #000000; stroke-width: 0.8"/>
      </g>
     </g>
     <g id="text_3">
      <!-- 3 -->
      <g transform="translate(216.623048 259.829656) scale(0.1 -0.1)">
       <defs>
        <path id="DejaVuSans-16" d="M 2597 2516 
Q 3050 2419 3304 2112 
Q 3559 1806 3559 1356 
Q 3559 666 3084 287 
Q 2609 -91 1734 -91 
Q 1441 -91 1130 -33 
Q 819 25 488 141 
L 488 750 
Q 750 597 1062 519 
Q 1375 441 1716 441 
Q 2309 441 2620 675 
Q 2931 909 2931 1356 
Q 2931 1769 2642 2001 
Q 2353 2234 1838 2234 
L 1294 2234 
L 1294 2753 
L 1863 2753 
Q 2328 2753 2575 2939 
Q 2822 3125 2822 3475 
Q 2822 3834 2567 4026 
Q 2313 4219 1838 4219 
Q 1578 4219 1281 4162 
Q 984 4106 628 3988 
L 628 4550 
Q 988 4650 1302 4700 
Q 1616 4750 1894 4750 
Q 2613 4750 3031 4423 
Q 3450 4097 3450 3541 
Q 3450 3153 3228 2886 
Q 3006 2619 2597 2516 
z
" transform="scale(0.015625)"/>
       </defs>
       <use xlink:href="#DejaVuSans-16"/>
      </g>
     </g>
    </g>
    <g id="text_4">
     <!-- releases later -->
     <g transform="translate(116.808502 273.830438) scale(0.1 -0.1)">
      <defs>
       <path id="DejaVuSans-55" d="M 2631 2963 
Q 2534 3019 2420 3045 
Q 2306 3072 2169 3072 
Q 1681 3072 1420 2755 
Q 1159 2438 1159 1844 
L 1159 0 
L 581 0 
L 581 3500 
L 1159 3500 
L 1159 2956 
Q 1341 3275 1631 3429 
Q 1922 3584 2338 3584 
Q 2397 3584 2469 3576 
Q 2541 3569 2628 3553 
L 2631 2963 
z
" transform="scale(0.015625)"/>
       <path id="DejaVuSans-48" d="M 3597 1894 
L 3597 1613 
L 953 1613 
Q 991 1019 1311 708 
Q 1631 397 2203 397 
Q 2534 397 2845 478 
Q 3156 559 3463 722 
L 3463 178 
Q 3153 47 2828 -22 
Q 2503 -91 2169 -91 
Q 1331 -91 842 396 
Q 353 884 353 1716 
Q 353 2575 817 3079 
Q 1281 3584 2069 3584 
Q 2775 3584 3186 3129 
Q 3597 2675 3597 1894 
z
M 3022 2063 
Q 3016 2534 2758 2815 
Q 2500 3097 2075 3097 
Q 1594 3097 1305 2825 
Q 1016 2553 972 2059 
L 3022 2063 
z
" transform="scale(0.015625)"/>
       <path id="DejaVuSans-4f" d="M 603 4863 
L 1178 4863 
L 1178 0 
L 603 0 
L 603 4863 
z
" transform="scale(0.015625)"/>
       <path id="DejaVuSans-44" d="M 2194 1759 
Q 1497 1759 1228 1600 
Q 959 1441 959 1056 
Q 959 750 1161 570 
Q 1363 391 1709 391 
Q 2188 391 2477 730 
Q 2766 1069 2766 1631 
L 2766 1759 
L 2194 1759 
z
M 3341 1997 
L 3341 0 
L 2766 0 
L 2766 531 
Q 2569 213 2275 61 
Q 1981 -91 1556 -91 
Q 1019 -91 701 211 
Q 384 513 384 1019 
Q 384 1609 779 1909 
Q 1175 2209 1959 2209 
L 2766 2209 
L 2766 2266 
Q 2766 2663 2505 2880 
Q 2244 3097 1772 3097 
Q 1472 3097 1187 3025 
Q 903 2953 641 2809 
L 641 3341 
Q 956 3463 1253 3523 
Q 1550 3584 1831 3584 
Q 2591 3584 2966 3190 
Q 3341 2797 3341 1997 
z
" transform="scale(0.015625)"/>
       <path id="DejaVuSans-56" d="M 2834 3397 
L 2834 2853 
Q 2591 2978 2328 3040 
Q 2066 3103 1784 3103 
Q 1356 3103 1142 2972 
Q 928 2841 928 2578 
Q 928 2378 1081 2264 
Q 1234 2150 1697 2047 
L 1894 2003 
Q 2506 1872 2764 1633 
Q 3022 1394 3022 966 
Q 3022 478 2636 193 
Q 2250 -91 1575 -91 
Q 1294 -91 989 -36 
Q 684 19 347 128 
L 347 722 
Q 666 556 975 473 
Q 1284 391 1588 391 
Q 1994 391 2212 530 
Q 2431 669 2431 922 
Q 2431 1156 2273 1281 
Q 2116 1406 1581 1522 
L 1381 1569 
Q 847 1681 609 1914 
Q 372 2147 372 2553 
Q 372 3047 722 3315 
Q 1072 3584 1716 3584 
Q 2034 3584 2315 3537 
Q 2597 3491 2834 3397 
z
" transform="scale(0.015625)"/>
       <path id="DejaVuSans-3" transform="scale(0.015625)"/>
       <path id="DejaVuSans-57" d="M 1172 4494 
L 1172 3500 
L 2356 3500 
L 2356 3053 
L 1172 3053 
L 1172 1153 
Q 1172 725 1289 603 
Q 1406 481 1766 481 
L 2356 481 
L 2356 0 
L 1766 0 
Q 1100 0 847 248 
Q 594 497 594 1153 
L 594 3053 
L 172 3053 
L 172 3500 
L 594 3500 
L 594 4494 
L 1172 4494 
z
" transform="scale(0.015625)"/>
      </defs>
      <use xlink:href="#DejaVuSans-55"/>
      <use xlink:href="#DejaVuSans-48" transform="translate(38.90625 0)"/>
      <use xlink:href="#DejaVuSans-4f" transform="translate(100.4375 0)"/>
      <use xlink:href="#DejaVuSans-48" transform="translate(128.21875 0)"/>
      <use xlink:href="#DejaVuSans-44" transform="translate(189.75 0)"/>
      <use xlink:href="#DejaVuSans-56" transform="translate(251.03125 0)"/>
      <use xlink:href="#DejaVuSans-48" transform="translate(303.125 0)"/>
      <use xlink:href="#DejaVuSans-56" transform="translate(364.65625 0)"/>
      <use xlink:href="#DejaVuSans-3" transform="translate(416.75 0)"/>
      <use xlink:href="#DejaVuSans-4f" transform="translate(448.53125 0)"/>
      <use xlink:href="#DejaVuSans-44" transform="translate(476.3125 0)"/>
      <use xlink:href="#DejaVuSans-57" transform="translate(537.59375 0)"/>
      <use xlink:href="#DejaVuSans-48" transform="translate(576.796875 0)"/>
      <use xlink:href="#DejaVuSans-55" transform="translate(638.328125 0)"/>
     </g>
    </g>
   </g>
   <g id="matplotlib.axis_2">
    <g id="ytick_1">
     <g id="line2d_4">
      <defs>
       <path id="m12e9673856" d="M 0 0 
L -3.5 0 
" style="stroke: #000000; stroke-width: 0.8"/>
      </defs>
      <g>
       <use xlink:href="#m12e9673856" x="44.103906" y="245.232" style="stroke: #000000; stroke-width: 0.8"/>
      </g>
     </g>
     <g id="text_5">
      <!-- 0.0 -->
      <g transform="translate(21.200781 249.030828) scale(0.1 -0.1)">
       <defs>
        <path id="DejaVuSans-13" d="M 2034 4250 
Q 1547 4250 1301 3770 
Q 1056 3291 1056 2328 
Q 1056 1369 1301 889 
Q 1547 409 2034 409 
Q 2525 409 2770 889 
Q 3016 1369 3016 2328 
Q 3016 3291 2770 3770 
Q 2525 4250 2034 4250 
z
M 2034 4750 
Q 2819 4750 3233 4129 
Q 3647 3509 3647 2328 
Q 3647 1150 3233 529 
Q 2819 -91 2034 -91 
Q 1250 -91 836 529 
Q 422 1150 422 2328 
Q 422 3509 836 4129 
Q 1250 4750 2034 4750 
z
" transform="scale(0.015625)"/>
        <path id="DejaVuSans-11" d="M 684 794 
L 1344 794 
L 1344 0 
L 684 0 
L 684 794 
z
" transform="scale(0.015625)"/>
       </defs>
       <use xlink:href="#DejaVuSans-13"/>
       <use xlink:href="#DejaVuSans-11" transform="translate(63.625 0)"/>
       <use xlink:href="#DejaVuSans-13" transform="translate(95.40625 0)"/>
      </g>
     </g>
    </g>
    <g id="ytick_2">
     <g id="line2d_5">
      <g>
       <use xlink:href="#m12e9673856" x="44.103906" y="205.047742" style="stroke: #000000; stroke-width: 0.8"/>
      </g>
     </g>
     <g id="text_6">
      <!-- 0.2 -->
      <g transform="translate(21.200781 208.84657) scale(0.1 -0.1)">
       <use xlink:href="#DejaVuSans-13"/>
       <use xlink:href="#DejaVuSans-11" transform="translate(63.625 0)"/>
       <use xlink:href="#DejaVuSans-15" transform="translate(95.40625 0)"/>
      </g>
     </g>
    </g>
    <g id="ytick_3">
     <g id="line2d_6">
      <g>
       <use xlink:href="#m12e9673856" x="44.103906" y="164.863484" style="stroke: #000000; stroke-width: 0.8"/>
      </g>
     </g>
     <g id="text_7">
      <!-- 0.4 -->
      <g transform="translate(21.200781 168.662312) scale(0.1 -0.1)">
       <defs>
        <path id="DejaVuSans-17" d="M 2419 4116 
L 825 1625 
L 2419 1625 
L 2419 4116 
z
M 2253 4666 
L 3047 4666 
L 3047 1625 
L 3713 1625 
L 3713 1100 
L 3047 1100 
L 3047 0 
L 2419 0 
L 2419 1100 
L 313 1100 
L 313 1709 
L 2253 4666 
z
" transform="scale(0.015625)"/>
       </defs>
       <use xlink:href="#DejaVuSans-13"/>
       <use xlink:href="#DejaVuSans-11" transform="translate(63.625 0)"/>
       <use xlink:href="#DejaVuSans-17" transform="translate(95.40625 0)"/>
      </g>
     </g>
    </g>
    <g id="ytick_4">
     <g id="line2d_7">
      <g>
       <use xlink:href="#m12e9673856" x="44.103906" y="124.679226" style="stroke: #000000; stroke-width: 0.8"/>
      </g>
     </g>
     <g id="text_8">
      <!-- 0.6 -->
      <g transform="translate(21.200781 128.478054) scale(0.1 -0.1)">
       <defs>
        <path id="DejaVuSans-19" d="M 2113 2584 
Q 1688 2584 1439 2293 
Q 1191 2003 1191 1497 
Q 1191 994 1439 701 
Q 1688 409 2113 409 
Q 2538 409 2786 701 
Q 3034 994 3034 1497 
Q 3034 2003 2786 2293 
Q 2538 2584 2113 2584 
z
M 3366 4563 
L 3366 3988 
Q 3128 4100 2886 4159 
Q 2644 4219 2406 4219 
Q 1781 4219 1451 3797 
Q 1122 3375 1075 2522 
Q 1259 2794 1537 2939 
Q 1816 3084 2150 3084 
Q 2853 3084 3261 2657 
Q 3669 2231 3669 1497 
Q 3669 778 3244 343 
Q 2819 -91 2113 -91 
Q 1303 -91 875 529 
Q 447 1150 447 2328 
Q 447 3434 972 4092 
Q 1497 4750 2381 4750 
Q 2619 4750 2861 4703 
Q 3103 4656 3366 4563 
z
" transform="scale(0.015625)"/>
       </defs>
       <use xlink:href="#DejaVuSans-13"/>
       <use xlink:href="#DejaVuSans-11" transform="translate(63.625 0)"/>
       <use xlink:href="#DejaVuSans-19" transform="translate(95.40625 0)"/>
      </g>
     </g>
    </g>
    <g id="ytick_5">
     <g id="line2d_8">
      <g>
       <use xlink:href="#m12e9673856" x="44.103906" y="84.494968" style="stroke: #000000; stroke-width: 0.8"/>
      </g>
     </g>
     <g id="text_9">
      <!-- 0.8 -->
      <g transform="translate(21.200781 88.293796) scale(0.1 -0.1)">
       <defs>
        <path id="DejaVuSans-1b" d="M 2034 2216 
Q 1584 2216 1326 1975 
Q 1069 1734 1069 1313 
Q 1069 891 1326 650 
Q 1584 409 2034 409 
Q 2484 409 2743 651 
Q 3003 894 3003 1313 
Q 3003 1734 2745 1975 
Q 2488 2216 2034 2216 
z
M 1403 2484 
Q 997 2584 770 2862 
Q 544 3141 544 3541 
Q 544 4100 942 4425 
Q 1341 4750 2034 4750 
Q 2731 4750 3128 4425 
Q 3525 4100 3525 3541 
Q 3525 3141 3298 2862 
Q 3072 2584 2669 2484 
Q 3125 2378 3379 2068 
Q 3634 1759 3634 1313 
Q 3634 634 3220 271 
Q 2806 -91 2034 -91 
Q 1263 -91 848 271 
Q 434 634 434 1313 
Q 434 1759 690 2068 
Q 947 2378 1403 2484 
z
M 1172 3481 
Q 1172 3119 1398 2916 
Q 1625 2713 2034 2713 
Q 2441 2713 2670 2916 
Q 2900 3119 2900 3481 
Q 2900 3844 2670 4047 
Q 2441 4250 2034 4250 
Q 1625 4250 1398 4047 
Q 1172 3844 1172 3481 
z
" transform="scale(0.015625)"/>
       </defs>
       <use xlink:href="#DejaVuSans-13"/>
       <use xlink:href="#DejaVuSans-11" transform="translate(63.625 0)"/>
       <use xlink:href="#DejaVuSans-1b" transform="translate(95.40625 0)"/>
      </g>
     </g>
    </g>
    <g id="ytick_6">
     <g id="line2d_9">
      <g>
       <use xlink:href="#m12e9673856" x="44.103906" y="44.31071" style="stroke: #000000; stroke-width: 0.8"/>
      </g>
     </g>
     <g id="text_10">
      <!-- 1.0 -->
      <g transform="translate(21.200781 48.109538) scale(0.1 -0.1)">
       <use xlink:href="#DejaVuSans-14"/>
       <use xlink:href="#DejaVuSans-11" transform="translate(63.625 0)"/>
       <use xlink:href="#DejaVuSans-13" transform="translate(95.40625 0)"/>
      </g>
     </g>
    </g>
    <g id="text_11">
     <!-- share of (item, release) pairs -->
     <g transform="translate(14.798438 212.238188) rotate(-90) scale(0.1 -0.1)">
      <defs>
       <path id="DejaVuSans-4b" d="M 3513 2113 
L 3513 0 
L 2938 0 
L 2938 2094 
Q 2938 2591 2744 2837 
Q 2550 3084 2163 3084 
Q 1697 3084 1428 2787 
Q 1159 2491 1159 1978 
L 1159 0 
L 581 0 
L 581 4863 
L 1159 4863 
L 1159 2956 
Q 1366 3272 1645 3428 
Q 1925 3584 2291 3584 
Q 2894 3584 3203 3211 
Q 3513 2838 3513 2113 
z
" transform="scale(0.015625)"/>
       <path id="DejaVuSans-52" d="M 1959 3097 
Q 1497 3097 1228 2736 
Q 959 2375 959 1747 
Q 959 1119 1226 758 
Q 1494 397 1959 397 
Q 2419 397 2687 759 
Q 2956 1122 2956 1747 
Q 2956 2369 2687 2733 
Q 2419 3097 1959 3097 
z
M 1959 3584 
Q 2709 3584 3137 3096 
Q 3566 2609 3566 1747 
Q 3566 888 3137 398 
Q 2709 -91 1959 -91 
Q 1206 -91 779 398 
Q 353 888 353 1747 
Q 353 2609 779 3096 
Q 1206 3584 1959 3584 
z
" transform="scale(0.015625)"/>
       <path id="DejaVuSans-49" d="M 2375 4863 
L 2375 4384 
L 1825 4384 
Q 1516 4384 1395 4259 
Q 1275 4134 1275 3809 
L 1275 3500 
L 2222 3500 
L 2222 3053 
L 1275 3053 
L 1275 0 
L 697 0 
L 697 3053 
L 147 3053 
L 147 3500 
L 697 3500 
L 697 3744 
Q 697 4328 969 4595 
Q 1241 4863 1831 4863 
L 2375 4863 
z
" transform="scale(0.015625)"/>
       <path id="DejaVuSans-b" d="M 1984 4856 
Q 1566 4138 1362 3434 
Q 1159 2731 1159 2009 
Q 1159 1288 1364 580 
Q 1569 -128 1984 -844 
L 1484 -844 
Q 1016 -109 783 600 
Q 550 1309 550 2009 
Q 550 2706 781 3412 
Q 1013 4119 1484 4856 
L 1984 4856 
z
" transform="scale(0.015625)"/>
       <path id="DejaVuSans-4c" d="M 603 3500 
L 1178 3500 
L 1178 0 
L 603 0 
L 603 3500 
z
M 603 4863 
L 1178 4863 
L 1178 4134 
L 603 4134 
L 603 4863 
z
" transform="scale(0.015625)"/>
       <path id="DejaVuSans-50" d="M 3328 2828 
Q 3544 3216 3844 3400 
Q 4144 3584 4550 3584 
Q 5097 3584 5394 3201 
Q 5691 2819 5691 2113 
L 5691 0 
L 5113 0 
L 5113 2094 
Q 5113 2597 4934 2840 
Q 4756 3084 4391 3084 
Q 3944 3084 3684 2787 
Q 3425 2491 3425 1978 
L 3425 0 
L 2847 0 
L 2847 2094 
Q 2847 2600 2669 2842 
Q 2491 3084 2119 3084 
Q 1678 3084 1418 2786 
Q 1159 2488 1159 1978 
L 1159 0 
L 581 0 
L 581 3500 
L 1159 3500 
L 1159 2956 
Q 1356 3278 1631 3431 
Q 1906 3584 2284 3584 
Q 2666 3584 2933 3390 
Q 3200 3197 3328 2828 
z
" transform="scale(0.015625)"/>
       <path id="DejaVuSans-f" d="M 750 794 
L 1409 794 
L 1409 256 
L 897 -744 
L 494 -744 
L 750 256 
L 750 794 
z
" transform="scale(0.015625)"/>
       <path id="DejaVuSans-c" d="M 513 4856 
L 1013 4856 
Q 1481 4119 1714 3412 
Q 1947 2706 1947 2009 
Q 1947 1309 1714 600 
Q 1481 -109 1013 -844 
L 513 -844 
Q 928 -128 1133 580 
Q 1338 1288 1338 2009 
Q 1338 2731 1133 3434 
Q 928 4138 513 4856 
z
" transform="scale(0.015625)"/>
       <path id="DejaVuSans-53" d="M 1159 525 
L 1159 -1331 
L 581 -1331 
L 581 3500 
L 1159 3500 
L 1159 2969 
Q 1341 3281 1617 3432 
Q 1894 3584 2278 3584 
Q 2916 3584 3314 3078 
Q 3713 2572 3713 1747 
Q 3713 922 3314 415 
Q 2916 -91 2278 -91 
Q 1894 -91 1617 61 
Q 1341 213 1159 525 
z
M 3116 1747 
Q 3116 2381 2855 2742 
Q 2594 3103 2138 3103 
Q 1681 3103 1420 2742 
Q 1159 2381 1159 1747 
Q 1159 1113 1420 752 
Q 1681 391 2138 391 
Q 2594 391 2855 752 
Q 3116 1113 3116 1747 
z
" transform="scale(0.015625)"/>
      </defs>
      <use xlink:href="#DejaVuSans-56"/>
      <use xlink:href="#DejaVuSans-4b" transform="translate(52.09375 0)"/>
      <use xlink:href="#DejaVuSans-44" transform="translate(115.46875 0)"/>
      <use xlink:href="#DejaVuSans-55" transform="translate(176.75 0)"/>
      <use xlink:href="#DejaVuSans-48" transform="translate(215.65625 0)"/>
      <use xlink:href="#DejaVuSans-3" transform="translate(277.1875 0)"/>
      <use xlink:href="#DejaVuSans-52" transform="translate(308.96875 0)"/>
      <use xlink:href="#DejaVuSans-49" transform="translate(370.15625 0)"/>
      <use xlink:href="#DejaVuSans-3" transform="translate(405.359375 0)"/>
      <use xlink:href="#DejaVuSans-b" transform="translate(437.140625 0)"/>
      <use xlink:href="#DejaVuSans-4c" transform="translate(476.15625 0)"/>
      <use xlink:href="#DejaVuSans-57" transform="translate(503.9375 0)"/>
      <use xlink:href="#DejaVuSans-48" transform="translate(543.140625 0)"/>
      <use xlink:href="#DejaVuSans-50" transform="translate(604.671875 0)"/>
      <use xlink:href="#DejaVuSans-f" transform="translate(702.078125 0)"/>
      <use xlink:href="#DejaVuSans-3" transform="translate(733.859375 0)"/>
      <use xlink:href="#DejaVuSans-55" transform="translate(765.640625 0)"/>
      <use xlink:href="#DejaVuSans-48" transform="translate(804.546875 0)"/>
      <use xlink:href="#DejaVuSans-4f" transform="translate(866.078125 0)"/>
      <use xlink:href="#DejaVuSans-48" transform="translate(893.859375 0)"/>
      <use xlink:href="#DejaVuSans-44" transform="translate(955.390625 0)"/>
      <use xlink:href="#DejaVuSans-56" transform="translate(1016.671875 0)"/>
      <use xlink:href="#DejaVuSans-48" transform="translate(1068.765625 0)"/>
      <use xlink:href="#DejaVuSans-c" transform="translate(1130.296875 0)"/>
      <use xlink:href="#DejaVuSans-3" transform="translate(1169.3125 0)"/>
      <use xlink:href="#DejaVuSans-53" transform="translate(1201.09375 0)"/>
      <use xlink:href="#DejaVuSans-44" transform="translate(1264.578125 0)"/>
      <use xlink:href="#DejaVuSans-4c" transform="translate(1325.859375 0)"/>
      <use xlink:href="#DejaVuSans-55" transform="translate(1353.640625 0)"/>
      <use xlink:href="#DejaVuSans-56" transform="translate(1394.75 0)"/>
     </g>
    </g>
   </g>
   <g id="patch_12">
    <path d="M 44.103906 245.232 
L 44.103906 34.56 
" style="fill: none; stroke: #000000; stroke-width: 0.8; stroke-linejoin: miter; stroke-linecap: square"/>
   </g>
   <g id="patch_13">
    <path d="M 257.456847 245.232 
L 257.456847 34.56 
" style="fill: none; stroke: #000000; stroke-width: 0.8; stroke-linejoin: miter; stroke-linecap: square"/>
   </g>
   <g id="patch_14">
    <path d="M 44.103906 245.232 
L 257.456847 245.232 
" style="fill: none; stroke: #000000; stroke-width: 0.8; stroke-linejoin: miter; stroke-linecap: square"/>
   </g>
   <g id="patch_15">
    <path d="M 44.103906 34.56 
L 257.456847 34.56 
" style="fill: none; stroke: #000000; stroke-width: 0.8; stroke-linejoin: miter; stroke-linecap: square"/>
   </g>
   <g id="text_12">
    <!-- 99% -->
    <g transform="translate(56.452028 44.431263) scale(0.06 -0.06)">
     <defs>
      <path id="DejaVuSans-1c" d="M 703 97 
L 703 672 
Q 941 559 1184 500 
Q 1428 441 1663 441 
Q 2288 441 2617 861 
Q 2947 1281 2994 2138 
Q 2813 1869 2534 1725 
Q 2256 1581 1919 1581 
Q 1219 1581 811 2004 
Q 403 2428 403 3163 
Q 403 3881 828 4315 
Q 1253 4750 1959 4750 
Q 2769 4750 3195 4129 
Q 3622 3509 3622 2328 
Q 3622 1225 3098 567 
Q 2575 -91 1691 -91 
Q 1453 -91 1209 -44 
Q 966 3 703 97 
z
M 1959 2075 
Q 2384 2075 2632 2365 
Q 2881 2656 2881 3163 
Q 2881 3666 2632 3958 
Q 2384 4250 1959 4250 
Q 1534 4250 1286 3958 
Q 1038 3666 1038 3163 
Q 1038 2656 1286 2365 
Q 1534 2075 1959 2075 
z
" transform="scale(0.015625)"/>
      <path id="DejaVuSans-8" d="M 4653 2053 
Q 4381 2053 4226 1822 
Q 4072 1591 4072 1178 
Q 4072 772 4226 539 
Q 4381 306 4653 306 
Q 4919 306 5073 539 
Q 5228 772 5228 1178 
Q 5228 1588 5073 1820 
Q 4919 2053 4653 2053 
z
M 4653 2450 
Q 5147 2450 5437 2106 
Q 5728 1763 5728 1178 
Q 5728 594 5436 251 
Q 5144 -91 4653 -91 
Q 4153 -91 3862 251 
Q 3572 594 3572 1178 
Q 3572 1766 3864 2108 
Q 4156 2450 4653 2450 
z
M 1428 4353 
Q 1159 4353 1004 4120 
Q 850 3888 850 3481 
Q 850 3069 1003 2837 
Q 1156 2606 1428 2606 
Q 1700 2606 1854 2837 
Q 2009 3069 2009 3481 
Q 2009 3884 1853 4118 
Q 1697 4353 1428 4353 
z
M 4250 4750 
L 4750 4750 
L 1831 -91 
L 1331 -91 
L 4250 4750 
z
M 1428 4750 
Q 1922 4750 2215 4408 
Q 2509 4066 2509 3481 
Q 2509 2891 2217 2550 
Q 1925 2209 1428 2209 
Q 931 2209 642 2551 
Q 353 2894 353 3481 
Q 353 4063 643 4406 
Q 934 4750 1428 4750 
z
" transform="scale(0.015625)"/>
     </defs>
     <use xlink:href="#DejaVuSans-1c"/>
     <use xlink:href="#DejaVuSans-1c" transform="translate(63.625 0)"/>
     <use xlink:href="#DejaVuSans-8" transform="translate(127.25 0)"/>
    </g>
   </g>
   <g id="text_13">
    <!-- 98% -->
    <g transform="translate(125.475949 46.420384) scale(0.06 -0.06)">
     <use xlink:href="#DejaVuSans-1c"/>
     <use xlink:href="#DejaVuSans-1b" transform="translate(63.625 0)"/>
     <use xlink:href="#DejaVuSans-8" transform="translate(127.25 0)"/>
    </g>
   </g>
   <g id="text_14">
    <!-- 97% -->
    <g transform="translate(194.499871 48.429597) scale(0.06 -0.06)">
     <defs>
      <path id="DejaVuSans-1a" d="M 525 4666 
L 3525 4666 
L 3525 4397 
L 1831 0 
L 1172 0 
L 2766 4134 
L 525 4134 
L 525 4666 
z
" transform="scale(0.015625)"/>
     </defs>
     <use xlink:href="#DejaVuSans-1c"/>
     <use xlink:href="#DejaVuSans-1a" transform="translate(63.625 0)"/>
     <use xlink:href="#DejaVuSans-8" transform="translate(127.25 0)"/>
    </g>
   </g>
   <g id="text_15">
    <!-- 45% -->
    <g transform="translate(75.088487 153.390878) scale(0.06 -0.06)">
     <defs>
      <path id="DejaVuSans-18" d="M 691 4666 
L 3169 4666 
L 3169 4134 
L 1269 4134 
L 1269 2991 
Q 1406 3038 1543 3061 
Q 1681 3084 1819 3084 
Q 2600 3084 3056 2656 
Q 3513 2228 3513 1497 
Q 3513 744 3044 326 
Q 2575 -91 1722 -91 
Q 1428 -91 1123 -41 
Q 819 9 494 109 
L 494 744 
Q 775 591 1075 516 
Q 1375 441 1709 441 
Q 2250 441 2565 725 
Q 2881 1009 2881 1497 
Q 2881 1984 2565 2268 
Q 2250 2553 1709 2553 
Q 1456 2553 1204 2497 
Q 953 2441 691 2322 
L 691 4666 
z
" transform="scale(0.015625)"/>
     </defs>
     <use xlink:href="#DejaVuSans-17"/>
     <use xlink:href="#DejaVuSans-18" transform="translate(63.625 0)"/>
     <use xlink:href="#DejaVuSans-8" transform="translate(127.25 0)"/>
    </g>
   </g>
   <g id="text_16">
    <!-- 28% -->
    <g transform="translate(144.112408 186.542891) scale(0.06 -0.06)">
     <use xlink:href="#DejaVuSans-15"/>
     <use xlink:href="#DejaVuSans-1b" transform="translate(63.625 0)"/>
     <use xlink:href="#DejaVuSans-8" transform="translate(127.25 0)"/>
    </g>
   </g>
   <g id="text_17">
    <!-- 20% -->
    <g transform="translate(213.13633 202.717055) scale(0.06 -0.06)">
     <use xlink:href="#DejaVuSans-15"/>
     <use xlink:href="#DejaVuSans-13" transform="translate(63.625 0)"/>
     <use xlink:href="#DejaVuSans-8" transform="translate(127.25 0)"/>
    </g>
   </g>
   <g id="text_18">
    <!-- 99% -->
    <g transform="translate(93.724945 44.551816) scale(0.06 -0.06)">
     <use xlink:href="#DejaVuSans-1c"/>
     <use xlink:href="#DejaVuSans-1c" transform="translate(63.625 0)"/>
     <use xlink:href="#DejaVuSans-8" transform="translate(127.25 0)"/>
    </g>
   </g>
   <g id="text_19">
    <!-- 98% -->
    <g transform="translate(162.748867 45.837712) scale(0.06 -0.06)">
     <use xlink:href="#DejaVuSans-1c"/>
     <use xlink:href="#DejaVuSans-1b" transform="translate(63.625 0)"/>
     <use xlink:href="#DejaVuSans-8" transform="translate(127.25 0)"/>
    </g>
   </g>
   <g id="text_20">
    <!-- 98% -->
    <g transform="translate(231.772788 47.264253) scale(0.06 -0.06)">
     <use xlink:href="#DejaVuSans-1c"/>
     <use xlink:href="#DejaVuSans-1b" transform="translate(63.625 0)"/>
     <use xlink:href="#DejaVuSans-8" transform="translate(127.25 0)"/>
    </g>
   </g>
   <g id="text_21">
    <!-- L1 -->
    <g transform="translate(145.409908 28.56) scale(0.09 -0.09)">
     <defs>
      <path id="DejaVuSans-2f" d="M 628 4666 
L 1259 4666 
L 1259 531 
L 3531 531 
L 3531 0 
L 628 0 
L 628 4666 
z
" transform="scale(0.015625)"/>
     </defs>
     <use xlink:href="#DejaVuSans-2f"/>
     <use xlink:href="#DejaVuSans-14" transform="translate(55.71875 0)"/>
    </g>
   </g>
   <g id="legend_1">
    <g id="patch_16">
     <path d="M 49.003906 241.732 
L 170.709844 241.732 
Q 172.109844 241.732 172.109844 240.332 
L 172.109844 209.530359 
Q 172.109844 208.130359 170.709844 208.130359 
L 49.003906 208.130359 
Q 47.603906 208.130359 47.603906 209.530359 
L 47.603906 240.332 
Q 47.603906 241.732 49.003906 241.732 
z
" style="fill: #ffffff; opacity: 0.8; stroke: #cccccc; stroke-linejoin: miter"/>
    </g>
    <g id="patch_17">
     <path d="M 50.403906 216.249266 
L 64.403906 216.249266 
L 64.403906 211.349266 
L 50.403906 211.349266 
z
" style="fill: #9ecae1"/>
    </g>
    <g id="text_22">
     <!-- artifact path present -->
     <g transform="translate(70.003906 216.249266) scale(0.07 -0.07)">
      <defs>
       <path id="DejaVuSans-46" d="M 3122 3366 
L 3122 2828 
Q 2878 2963 2633 3030 
Q 2388 3097 2138 3097 
Q 1578 3097 1268 2742 
Q 959 2388 959 1747 
Q 959 1106 1268 751 
Q 1578 397 2138 397 
Q 2388 397 2633 464 
Q 2878 531 3122 666 
L 3122 134 
Q 2881 22 2623 -34 
Q 2366 -91 2075 -91 
Q 1284 -91 818 406 
Q 353 903 353 1747 
Q 353 2603 823 3093 
Q 1294 3584 2113 3584 
Q 2378 3584 2631 3529 
Q 2884 3475 3122 3366 
z
" transform="scale(0.015625)"/>
       <path id="DejaVuSans-51" d="M 3513 2113 
L 3513 0 
L 2938 0 
L 2938 2094 
Q 2938 2591 2744 2837 
Q 2550 3084 2163 3084 
Q 1697 3084 1428 2787 
Q 1159 2491 1159 1978 
L 1159 0 
L 581 0 
L 581 3500 
L 1159 3500 
L 1159 2956 
Q 1366 3272 1645 3428 
Q 1925 3584 2291 3584 
Q 2894 3584 3203 3211 
Q 3513 2838 3513 2113 
z
" transform="scale(0.015625)"/>
      </defs>
      <use xlink:href="#DejaVuSans-44"/>
      <use xlink:href="#DejaVuSans-55" transform="translate(61.28125 0)"/>
      <use xlink:href="#DejaVuSans-57" transform="translate(102.390625 0)"/>
      <use xlink:href="#DejaVuSans-4c" transform="translate(141.59375 0)"/>
      <use xlink:href="#DejaVuSans-49" transform="translate(169.375 0)"/>
      <use xlink:href="#DejaVuSans-44" transform="translate(204.578125 0)"/>
      <use xlink:href="#DejaVuSans-46" transform="translate(265.859375 0)"/>
      <use xlink:href="#DejaVuSans-57" transform="translate(320.84375 0)"/>
      <use xlink:href="#DejaVuSans-3" transform="translate(360.046875 0)"/>
      <use xlink:href="#DejaVuSans-53" transform="translate(391.828125 0)"/>
      <use xlink:href="#DejaVuSans-44" transform="translate(455.3125 0)"/>
      <use xlink:href="#DejaVuSans-57" transform="translate(516.59375 0)"/>
      <use xlink:href="#DejaVuSans-4b" transform="translate(555.796875 0)"/>
      <use xlink:href="#DejaVuSans-3" transform="translate(619.171875 0)"/>
      <use xlink:href="#DejaVuSans-53" transform="translate(650.953125 0)"/>
      <use xlink:href="#DejaVuSans-55" transform="translate(714.4375 0)"/>
      <use xlink:href="#DejaVuSans-48" transform="translate(753.34375 0)"/>
      <use xlink:href="#DejaVuSans-56" transform="translate(814.875 0)"/>
      <use xlink:href="#DejaVuSans-48" transform="translate(866.96875 0)"/>
      <use xlink:href="#DejaVuSans-51" transform="translate(928.5 0)"/>
      <use xlink:href="#DejaVuSans-57" transform="translate(991.875 0)"/>
     </g>
    </g>
    <g id="patch_18">
     <path d="M 50.403906 226.749813 
L 64.403906 226.749813 
L 64.403906 221.849813 
L 50.403906 221.849813 
z
" style="fill: #fdae6b"/>
    </g>
    <g id="text_23">
     <!-- artifact textually unchanged -->
     <g transform="translate(70.003906 226.749813) scale(0.07 -0.07)">
      <defs>
       <path id="DejaVuSans-5b" d="M 3513 3500 
L 2247 1797 
L 3578 0 
L 2900 0 
L 1881 1375 
L 863 0 
L 184 0 
L 1544 1831 
L 300 3500 
L 978 3500 
L 1906 2253 
L 2834 3500 
L 3513 3500 
z
" transform="scale(0.015625)"/>
       <path id="DejaVuSans-58" d="M 544 1381 
L 544 3500 
L 1119 3500 
L 1119 1403 
Q 1119 906 1312 657 
Q 1506 409 1894 409 
Q 2359 409 2629 706 
Q 2900 1003 2900 1516 
L 2900 3500 
L 3475 3500 
L 3475 0 
L 2900 0 
L 2900 538 
Q 2691 219 2414 64 
Q 2138 -91 1772 -91 
Q 1169 -91 856 284 
Q 544 659 544 1381 
z
M 1991 3584 
L 1991 3584 
z
" transform="scale(0.015625)"/>
       <path id="DejaVuSans-5c" d="M 2059 -325 
Q 1816 -950 1584 -1140 
Q 1353 -1331 966 -1331 
L 506 -1331 
L 506 -850 
L 844 -850 
Q 1081 -850 1212 -737 
Q 1344 -625 1503 -206 
L 1606 56 
L 191 3500 
L 800 3500 
L 1894 763 
L 2988 3500 
L 3597 3500 
L 2059 -325 
z
" transform="scale(0.015625)"/>
       <path id="DejaVuSans-4a" d="M 2906 1791 
Q 2906 2416 2648 2759 
Q 2391 3103 1925 3103 
Q 1463 3103 1205 2759 
Q 947 2416 947 1791 
Q 947 1169 1205 825 
Q 1463 481 1925 481 
Q 2391 481 2648 825 
Q 2906 1169 2906 1791 
z
M 3481 434 
Q 3481 -459 3084 -895 
Q 2688 -1331 1869 -1331 
Q 1566 -1331 1297 -1286 
Q 1028 -1241 775 -1147 
L 775 -588 
Q 1028 -725 1275 -790 
Q 1522 -856 1778 -856 
Q 2344 -856 2625 -561 
Q 2906 -266 2906 331 
L 2906 616 
Q 2728 306 2450 153 
Q 2172 0 1784 0 
Q 1141 0 747 490 
Q 353 981 353 1791 
Q 353 2603 747 3093 
Q 1141 3584 1784 3584 
Q 2172 3584 2450 3431 
Q 2728 3278 2906 2969 
L 2906 3500 
L 3481 3500 
L 3481 434 
z
" transform="scale(0.015625)"/>
       <path id="DejaVuSans-47" d="M 2906 2969 
L 2906 4863 
L 3481 4863 
L 3481 0 
L 2906 0 
L 2906 525 
Q 2725 213 2448 61 
Q 2172 -91 1784 -91 
Q 1150 -91 751 415 
Q 353 922 353 1747 
Q 353 2572 751 3078 
Q 1150 3584 1784 3584 
Q 2172 3584 2448 3432 
Q 2725 3281 2906 2969 
z
M 947 1747 
Q 947 1113 1208 752 
Q 1469 391 1925 391 
Q 2381 391 2643 752 
Q 2906 1113 2906 1747 
Q 2906 2381 2643 2742 
Q 2381 3103 1925 3103 
Q 1469 3103 1208 2742 
Q 947 2381 947 1747 
z
" transform="scale(0.015625)"/>
      </defs>
      <use xlink:href="#DejaVuSans-44"/>
      <use xlink:href="#DejaVuSans-55" transform="translate(61.28125 0)"/>
      <use xlink:href="#DejaVuSans-57" transform="translate(102.390625 0)"/>
      <use xlink:href="#DejaVuSans-4c" transform="translate(141.59375 0)"/>
      <use xlink:href="#DejaVuSans-49" transform="translate(169.375 0)"/>
      <use xlink:href="#DejaVuSans-44" transform="translate(204.578125 0)"/>
      <use xlink:href="#DejaVuSans-46" transform="translate(265.859375 0)"/>
      <use xlink:href="#DejaVuSans-57" transform="translate(320.84375 0)"/>
      <use xlink:href="#DejaVuSans-3" transform="translate(360.046875 0)"/>
      <use xlink:href="#DejaVuSans-57" transform="translate(391.828125 0)"/>
      <use xlink:href="#DejaVuSans-48" transform="translate(431.03125 0)"/>
      <use xlink:href="#DejaVuSans-5b" transform="translate(490.8125 0)"/>
      <use xlink:href="#DejaVuSans-57" transform="translate(550 0)"/>
      <use xlink:href="#DejaVuSans-58" transform="translate(589.203125 0)"/>
      <use xlink:href="#DejaVuSans-44" transform="translate(652.578125 0)"/>
      <use xlink:href="#DejaVuSans-4f" transform="translate(713.859375 0)"/>
      <use xlink:href="#DejaVuSans-4f" transform="translate(741.640625 0)"/>
      <use xlink:href="#DejaVuSans-5c" transform="translate(769.421875 0)"/>
      <use xlink:href="#DejaVuSans-3" transform="translate(828.609375 0)"/>
      <use xlink:href="#DejaVuSans-58" transform="translate(860.390625 0)"/>
      <use xlink:href="#DejaVuSans-51" transform="translate(923.765625 0)"/>
      <use xlink:href="#DejaVuSans-46" transform="translate(987.140625 0)"/>
      <use xlink:href="#DejaVuSans-4b" transform="translate(1042.125 0)"/>
      <use xlink:href="#DejaVuSans-44" transform="translate(1105.5 0)"/>
      <use xlink:href="#DejaVuSans-51" transform="translate(1166.78125 0)"/>
      <use xlink:href="#DejaVuSans-4a" transform="translate(1230.15625 0)"/>
      <use xlink:href="#DejaVuSans-48" transform="translate(1293.640625 0)"/>
      <use xlink:href="#DejaVuSans-47" transform="translate(1355.171875 0)"/>
     </g>
    </g>
    <g id="patch_19">
     <path d="M 50.403906 237.250359 
L 64.403906 237.250359 
L 64.403906 232.350359 
L 50.403906 232.350359 
z
" style="fill: #a1d99b"/>
    </g>
    <g id="text_24">
     <!-- move signature present -->
     <g transform="translate(70.003906 237.250359) scale(0.07 -0.07)">
      <defs>
       <path id="DejaVuSans-59" d="M 191 3500 
L 800 3500 
L 1894 563 
L 2988 3500 
L 3597 3500 
L 2284 0 
L 1503 0 
L 191 3500 
z
" transform="scale(0.015625)"/>
      </defs>
      <use xlink:href="#DejaVuSans-50"/>
      <use xlink:href="#DejaVuSans-52" transform="translate(97.40625 0)"/>
      <use xlink:href="#DejaVuSans-59" transform="translate(158.59375 0)"/>
      <use xlink:href="#DejaVuSans-48" transform="translate(217.78125 0)"/>
      <use xlink:href="#DejaVuSans-3" transform="translate(279.3125 0)"/>
      <use xlink:href="#DejaVuSans-56" transform="translate(311.09375 0)"/>
      <use xlink:href="#DejaVuSans-4c" transform="translate(363.1875 0)"/>
      <use xlink:href="#DejaVuSans-4a" transform="translate(390.96875 0)"/>
      <use xlink:href="#DejaVuSans-51" transform="translate(454.453125 0)"/>
      <use xlink:href="#DejaVuSans-44" transform="translate(517.828125 0)"/>
      <use xlink:href="#DejaVuSans-57" transform="translate(579.109375 0)"/>
      <use xlink:href="#DejaVuSans-58" transform="translate(618.3125 0)"/>
      <use xlink:href="#DejaVuSans-55" transform="translate(681.6875 0)"/>
      <use xlink:href="#DejaVuSans-48" transform="translate(720.59375 0)"/>
      <use xlink:href="#DejaVuSans-3" transform="translate(782.125 0)"/>
      <use xlink:href="#DejaVuSans-53" transform="translate(813.90625 0)"/>
      <use xlink:href="#DejaVuSans-55" transform="translate(877.390625 0)"/>
      <use xlink:href="#DejaVuSans-48" transform="translate(916.296875 0)"/>
      <use xlink:href="#DejaVuSans-56" transform="translate(977.828125 0)"/>
      <use xlink:href="#DejaVuSans-48" transform="translate(1029.921875 0)"/>
      <use xlink:href="#DejaVuSans-51" transform="translate(1091.453125 0)"/>
      <use xlink:href="#DejaVuSans-57" transform="translate(1154.828125 0)"/>
     </g>
    </g>
   </g>
  </g>
  <g id="axes_2">
   <g id="patch_20">
    <path d="M 300.127436 245.232 
L 513.480377 245.232 
L 513.480377 34.56 
L 300.127436 34.56 
z
" style="fill: #ffffff"/>
   </g>
   <g id="patch_21">
    <path d="M 309.825297 245.232 
L 328.461755 245.232 
L 328.461755 44.813013 
L 309.825297 44.813013 
z
" clip-path="url(#p15fd11312f)" style="fill: #9ecae1"/>
   </g>
   <g id="patch_22">
    <path d="M 378.849218 245.232 
L 397.485677 245.232 
L 397.485677 44.853198 
L 378.849218 44.853198 
z
" clip-path="url(#p15fd11312f)" style="fill: #9ecae1"/>
   </g>
   <g id="patch_23">
    <path d="M 447.87314 245.232 
L 466.509598 245.232 
L 466.509598 44.87329 
L 447.87314 44.87329 
z
" clip-path="url(#p15fd11312f)" style="fill: #9ecae1"/>
   </g>
   <g id="patch_24">
    <path d="M 328.461755 245.232 
L 347.098214 245.232 
L 347.098214 189.315605 
L 328.461755 189.315605 
z
" clip-path="url(#p15fd11312f)" style="fill: #fdae6b"/>
   </g>
   <g id="patch_25">
    <path d="M 397.485677 245.232 
L 416.122136 245.232 
L 416.122136 219.172509 
L 397.485677 219.172509 
z
" clip-path="url(#p15fd11312f)" style="fill: #fdae6b"/>
   </g>
   <g id="patch_26">
    <path d="M 466.509598 245.232 
L 485.146057 245.232 
L 485.146057 227.832216 
L 466.509598 227.832216 
z
" clip-path="url(#p15fd11312f)" style="fill: #fdae6b"/>
   </g>
   <g id="patch_27">
    <path d="M 347.098214 245.232 
L 365.734673 245.232 
L 365.734673 46.259647 
L 347.098214 46.259647 
z
" clip-path="url(#p15fd11312f)" style="fill: #a1d99b"/>
   </g>
   <g id="patch_28">
    <path d="M 416.122136 245.232 
L 434.758594 245.232 
L 434.758594 47.384806 
L 416.122136 47.384806 
z
" clip-path="url(#p15fd11312f)" style="fill: #a1d99b"/>
   </g>
   <g id="patch_29">
    <path d="M 485.146057 245.232 
L 503.782516 245.232 
L 503.782516 48.610426 
L 485.146057 48.610426 
z
" clip-path="url(#p15fd11312f)" style="fill: #a1d99b"/>
   </g>
   <g id="matplotlib.axis_3">
    <g id="xtick_4">
     <g id="line2d_10">
      <g>
       <use xlink:href="#m249101e3fd" x="337.779985" y="245.232" style="stroke: #000000; stroke-width: 0.8"/>
      </g>
     </g>
     <g id="text_25">
      <!-- 1 -->
      <g transform="translate(334.598735 259.829656) scale(0.1 -0.1)">
       <use xlink:href="#DejaVuSans-14"/>
      </g>
     </g>
    </g>
    <g id="xtick_5">
     <g id="line2d_11">
      <g>
       <use xlink:href="#m249101e3fd" x="406.803906" y="245.232" style="stroke: #000000; stroke-width: 0.8"/>
      </g>
     </g>
     <g id="text_26">
      <!-- 2 -->
      <g transform="translate(403.622656 259.829656) scale(0.1 -0.1)">
       <use xlink:href="#DejaVuSans-15"/>
      </g>
     </g>
    </g>
    <g id="xtick_6">
     <g id="line2d_12">
      <g>
       <use xlink:href="#m249101e3fd" x="475.827828" y="245.232" style="stroke: #000000; stroke-width: 0.8"/>
      </g>
     </g>
     <g id="text_27">
      <!-- 3 -->
      <g transform="translate(472.646578 259.829656) scale(0.1 -0.1)">
       <use xlink:href="#DejaVuSans-16"/>
      </g>
     </g>
    </g>
    <g id="text_28">
     <!-- releases later -->
     <g transform="translate(372.832031 273.830438) scale(0.1 -0.1)">
      <use xlink:href="#DejaVuSans-55"/>
      <use xlink:href="#DejaVuSans-48" transform="translate(38.90625 0)"/>
      <use xlink:href="#DejaVuSans-4f" transform="translate(100.4375 0)"/>
      <use xlink:href="#DejaVuSans-48" transform="translate(128.21875 0)"/>
      <use xlink:href="#DejaVuSans-44" transform="translate(189.75 0)"/>
      <use xlink:href="#DejaVuSans-56" transform="translate(251.03125 0)"/>
      <use xlink:href="#DejaVuSans-48" transform="translate(303.125 0)"/>
      <use xlink:href="#DejaVuSans-56" transform="translate(364.65625 0)"/>
      <use xlink:href="#DejaVuSans-3" transform="translate(416.75 0)"/>
      <use xlink:href="#DejaVuSans-4f" transform="translate(448.53125 0)"/>
      <use xlink:href="#DejaVuSans-44" transform="translate(476.3125 0)"/>
      <use xlink:href="#DejaVuSans-57" transform="translate(537.59375 0)"/>
      <use xlink:href="#DejaVuSans-48" transform="translate(576.796875 0)"/>
      <use xlink:href="#DejaVuSans-55" transform="translate(638.328125 0)"/>
     </g>
    </g>
   </g>
   <g id="matplotlib.axis_4">
    <g id="ytick_7">
     <g id="line2d_13">
      <g>
       <use xlink:href="#m12e9673856" x="300.127436" y="245.232" style="stroke: #000000; stroke-width: 0.8"/>
      </g>
     </g>
    </g>
    <g id="ytick_8">
     <g id="line2d_14">
      <g>
       <use xlink:href="#m12e9673856" x="300.127436" y="205.047742" style="stroke: #000000; stroke-width: 0.8"/>
      </g>
     </g>
    </g>
    <g id="ytick_9">
     <g id="line2d_15">
      <g>
       <use xlink:href="#m12e9673856" x="300.127436" y="164.863484" style="stroke: #000000; stroke-width: 0.8"/>
      </g>
     </g>
    </g>
    <g id="ytick_10">
     <g id="line2d_16">
      <g>
       <use xlink:href="#m12e9673856" x="300.127436" y="124.679226" style="stroke: #000000; stroke-width: 0.8"/>
      </g>
     </g>
    </g>
    <g id="ytick_11">
     <g id="line2d_17">
      <g>
       <use xlink:href="#m12e9673856" x="300.127436" y="84.494968" style="stroke: #000000; stroke-width: 0.8"/>
      </g>
     </g>
    </g>
    <g id="ytick_12">
     <g id="line2d_18">
      <g>
       <use xlink:href="#m12e9673856" x="300.127436" y="44.31071" style="stroke: #000000; stroke-width: 0.8"/>
      </g>
     </g>
    </g>
   </g>
   <g id="patch_30">
    <path d="M 300.127436 245.232 
L 300.127436 34.56 
" style="fill: none; stroke: #000000; stroke-width: 0.8; stroke-linejoin: miter; stroke-linecap: square"/>
   </g>
   <g id="patch_31">
    <path d="M 513.480377 245.232 
L 513.480377 34.56 
" style="fill: none; stroke: #000000; stroke-width: 0.8; stroke-linejoin: miter; stroke-linecap: square"/>
   </g>
   <g id="patch_32">
    <path d="M 300.127436 245.232 
L 513.480377 245.232 
" style="fill: none; stroke: #000000; stroke-width: 0.8; stroke-linejoin: miter; stroke-linecap: square"/>
   </g>
   <g id="patch_33">
    <path d="M 300.127436 34.56 
L 513.480377 34.56 
" style="fill: none; stroke: #000000; stroke-width: 0.8; stroke-linejoin: miter; stroke-linecap: square"/>
   </g>
   <g id="text_29">
    <!-- 100% -->
    <g transform="translate(310.566807 42.803801) scale(0.06 -0.06)">
     <use xlink:href="#DejaVuSans-14"/>
     <use xlink:href="#DejaVuSans-13" transform="translate(63.625 0)"/>
     <use xlink:href="#DejaVuSans-13" transform="translate(127.25 0)"/>
     <use xlink:href="#DejaVuSans-8" transform="translate(190.875 0)"/>
    </g>
   </g>
   <g id="text_30">
    <!-- 100% -->
    <g transform="translate(379.590729 42.843985) scale(0.06 -0.06)">
     <use xlink:href="#DejaVuSans-14"/>
     <use xlink:href="#DejaVuSans-13" transform="translate(63.625 0)"/>
     <use xlink:href="#DejaVuSans-13" transform="translate(127.25 0)"/>
     <use xlink:href="#DejaVuSans-8" transform="translate(190.875 0)"/>
    </g>
   </g>
   <g id="text_31">
    <!-- 100% -->
    <g transform="translate(448.61465 42.864077) scale(0.06 -0.06)">
     <use xlink:href="#DejaVuSans-14"/>
     <use xlink:href="#DejaVuSans-13" transform="translate(63.625 0)"/>
     <use xlink:href="#DejaVuSans-13" transform="translate(127.25 0)"/>
     <use xlink:href="#DejaVuSans-8" transform="translate(190.875 0)"/>
    </g>
   </g>
   <g id="text_32">
    <!-- 28% -->
    <g transform="translate(331.112016 187.306392) scale(0.06 -0.06)">
     <use xlink:href="#DejaVuSans-15"/>
     <use xlink:href="#DejaVuSans-1b" transform="translate(63.625 0)"/>
     <use xlink:href="#DejaVuSans-8" transform="translate(127.25 0)"/>
    </g>
   </g>
   <g id="text_33">
    <!-- 13% -->
    <g transform="translate(400.135938 217.163296) scale(0.06 -0.06)">
     <use xlink:href="#DejaVuSans-14"/>
     <use xlink:href="#DejaVuSans-16" transform="translate(63.625 0)"/>
     <use xlink:href="#DejaVuSans-8" transform="translate(127.25 0)"/>
    </g>
   </g>
   <g id="text_34">
    <!-- 9% -->
    <g transform="translate(471.068609 225.823003) scale(0.06 -0.06)">
     <use xlink:href="#DejaVuSans-1c"/>
     <use xlink:href="#DejaVuSans-8" transform="translate(63.625 0)"/>
    </g>
   </g>
   <g id="text_35">
    <!-- 99% -->
    <g transform="translate(349.748475 44.250434) scale(0.06 -0.06)">
     <use xlink:href="#DejaVuSans-1c"/>
     <use xlink:href="#DejaVuSans-1c" transform="translate(63.625 0)"/>
     <use xlink:href="#DejaVuSans-8" transform="translate(127.25 0)"/>
    </g>
   </g>
   <g id="text_36">
    <!-- 98% -->
    <g transform="translate(418.772396 45.375593) scale(0.06 -0.06)">
     <use xlink:href="#DejaVuSans-1c"/>
     <use xlink:href="#DejaVuSans-1b" transform="translate(63.625 0)"/>
     <use xlink:href="#DejaVuSans-8" transform="translate(127.25 0)"/>
    </g>
   </g>
   <g id="text_37">
    <!-- 98% -->
    <g transform="translate(487.796318 46.601213) scale(0.06 -0.06)">
     <use xlink:href="#DejaVuSans-1c"/>
     <use xlink:href="#DejaVuSans-1b" transform="translate(63.625 0)"/>
     <use xlink:href="#DejaVuSans-8" transform="translate(127.25 0)"/>
    </g>
   </g>
   <g id="text_38">
    <!-- L2 -->
    <g transform="translate(401.433438 28.56) scale(0.09 -0.09)">
     <use xlink:href="#DejaVuSans-2f"/>
     <use xlink:href="#DejaVuSans-15" transform="translate(55.71875 0)"/>
    </g>
   </g>
  </g>
  <g id="axes_3">
   <g id="patch_34">
    <path d="M 556.150965 245.232 
L 769.503906 245.232 
L 769.503906 34.56 
L 556.150965 34.56 
z
" style="fill: #ffffff"/>
   </g>
   <g id="patch_35">
    <path d="M 565.848826 245.232 
L 584.485285 245.232 
L 584.485285 45.355501 
L 565.848826 45.355501 
z
" clip-path="url(#p41a2ec56fd)" style="fill: #9ecae1"/>
   </g>
   <g id="patch_36">
    <path d="M 634.872747 245.232 
L 653.509206 245.232 
L 653.509206 46.440476 
L 634.872747 46.440476 
z
" clip-path="url(#p41a2ec56fd)" style="fill: #9ecae1"/>
   </g>
   <g id="patch_37">
    <path d="M 703.896669 245.232 
L 722.533128 245.232 
L 722.533128 47.565635 
L 703.896669 47.565635 
z
" clip-path="url(#p41a2ec56fd)" style="fill: #9ecae1"/>
   </g>
   <g id="patch_38">
    <path d="M 584.485285 245.232 
L 603.121744 245.232 
L 603.121744 138.040492 
L 584.485285 138.040492 
z
" clip-path="url(#p41a2ec56fd)" style="fill: #fdae6b"/>
   </g>
   <g id="patch_39">
    <path d="M 653.509206 245.232 
L 672.145665 245.232 
L 672.145665 187.507313 
L 653.509206 187.507313 
z
" clip-path="url(#p41a2ec56fd)" style="fill: #fdae6b"/>
   </g>
   <g id="patch_40">
    <path d="M 722.533128 245.232 
L 741.169586 245.232 
L 741.169586 207.036863 
L 722.533128 207.036863 
z
" clip-path="url(#p41a2ec56fd)" style="fill: #fdae6b"/>
   </g>
   <g id="patch_41">
    <path d="M 603.121744 245.232 
L 621.758202 245.232 
L 621.758202 44.592 
L 603.121744 44.592 
z
" clip-path="url(#p41a2ec56fd)" style="fill: #a1d99b"/>
   </g>
   <g id="patch_42">
    <path d="M 672.145665 245.232 
L 690.782124 245.232 
L 690.782124 44.893382 
L 672.145665 44.893382 
z
" clip-path="url(#p41a2ec56fd)" style="fill: #a1d99b"/>
   </g>
   <g id="patch_43">
    <path d="M 741.169586 245.232 
L 759.806045 245.232 
L 759.806045 45.194764 
L 741.169586 45.194764 
z
" clip-path="url(#p41a2ec56fd)" style="fill: #a1d99b"/>
   </g>
   <g id="matplotlib.axis_5">
    <g id="xtick_7">
     <g id="line2d_19">
      <g>
       <use xlink:href="#m249101e3fd" x="593.803514" y="245.232" style="stroke: #000000; stroke-width: 0.8"/>
      </g>
     </g>
     <g id="text_39">
      <!-- 1 -->
      <g transform="translate(590.622264 259.829656) scale(0.1 -0.1)">
       <use xlink:href="#DejaVuSans-14"/>
      </g>
     </g>
    </g>
    <g id="xtick_8">
     <g id="line2d_20">
      <g>
       <use xlink:href="#m249101e3fd" x="662.827436" y="245.232" style="stroke: #000000; stroke-width: 0.8"/>
      </g>
     </g>
     <g id="text_40">
      <!-- 2 -->
      <g transform="translate(659.646186 259.829656) scale(0.1 -0.1)">
       <use xlink:href="#DejaVuSans-15"/>
      </g>
     </g>
    </g>
    <g id="xtick_9">
     <g id="line2d_21">
      <g>
       <use xlink:href="#m249101e3fd" x="731.851357" y="245.232" style="stroke: #000000; stroke-width: 0.8"/>
      </g>
     </g>
     <g id="text_41">
      <!-- 3 -->
      <g transform="translate(728.670107 259.829656) scale(0.1 -0.1)">
       <use xlink:href="#DejaVuSans-16"/>
      </g>
     </g>
    </g>
    <g id="text_42">
     <!-- releases later -->
     <g transform="translate(628.855561 273.830438) scale(0.1 -0.1)">
      <use xlink:href="#DejaVuSans-55"/>
      <use xlink:href="#DejaVuSans-48" transform="translate(38.90625 0)"/>
      <use xlink:href="#DejaVuSans-4f" transform="translate(100.4375 0)"/>
      <use xlink:href="#DejaVuSans-48" transform="translate(128.21875 0)"/>
      <use xlink:href="#DejaVuSans-44" transform="translate(189.75 0)"/>
      <use xlink:href="#DejaVuSans-56" transform="translate(251.03125 0)"/>
      <use xlink:href="#DejaVuSans-48" transform="translate(303.125 0)"/>
      <use xlink:href="#DejaVuSans-56" transform="translate(364.65625 0)"/>
      <use xlink:href="#DejaVuSans-3" transform="translate(416.75 0)"/>
      <use xlink:href="#DejaVuSans-4f" transform="translate(448.53125 0)"/>
      <use xlink:href="#DejaVuSans-44" transform="translate(476.3125 0)"/>
      <use xlink:href="#DejaVuSans-57" transform="translate(537.59375 0)"/>
      <use xlink:href="#DejaVuSans-48" transform="translate(576.796875 0)"/>
      <use xlink:href="#DejaVuSans-55" transform="translate(638.328125 0)"/>
     </g>
    </g>
   </g>
   <g id="matplotlib.axis_6">
    <g id="ytick_13">
     <g id="line2d_22">
      <g>
       <use xlink:href="#m12e9673856" x="556.150965" y="245.232" style="stroke: #000000; stroke-width: 0.8"/>
      </g>
     </g>
    </g>
    <g id="ytick_14">
     <g id="line2d_23">
      <g>
       <use xlink:href="#m12e9673856" x="556.150965" y="205.047742" style="stroke: #000000; stroke-width: 0.8"/>
      </g>
     </g>
    </g>
    <g id="ytick_15">
     <g id="line2d_24">
      <g>
       <use xlink:href="#m12e9673856" x="556.150965" y="164.863484" style="stroke: #000000; stroke-width: 0.8"/>
      </g>
     </g>
    </g>
    <g id="ytick_16">
     <g id="line2d_25">
      <g>
       <use xlink:href="#m12e9673856" x="556.150965" y="124.679226" style="stroke: #000000; stroke-width: 0.8"/>
      </g>
     </g>
    </g>
    <g id="ytick_17">
     <g id="line2d_26">
      <g>
       <use xlink:href="#m12e9673856" x="556.150965" y="84.494968" style="stroke: #000000; stroke-width: 0.8"/>
      </g>
     </g>
    </g>
    <g id="ytick_18">
     <g id="line2d_27">
      <g>
       <use xlink:href="#m12e9673856" x="556.150965" y="44.31071" style="stroke: #000000; stroke-width: 0.8"/>
      </g>
     </g>
    </g>
   </g>
   <g id="patch_44">
    <path d="M 556.150965 245.232 
L 556.150965 34.56 
" style="fill: none; stroke: #000000; stroke-width: 0.8; stroke-linejoin: miter; stroke-linecap: square"/>
   </g>
   <g id="patch_45">
    <path d="M 769.503906 245.232 
L 769.503906 34.56 
" style="fill: none; stroke: #000000; stroke-width: 0.8; stroke-linejoin: miter; stroke-linecap: square"/>
   </g>
   <g id="patch_46">
    <path d="M 556.150965 245.232 
L 769.503906 245.232 
" style="fill: none; stroke: #000000; stroke-width: 0.8; stroke-linejoin: miter; stroke-linecap: square"/>
   </g>
   <g id="patch_47">
    <path d="M 556.150965 34.56 
L 769.503906 34.56 
" style="fill: none; stroke: #000000; stroke-width: 0.8; stroke-linejoin: miter; stroke-linecap: square"/>
   </g>
   <g id="text_43">
    <!-- 99% -->
    <g transform="translate(568.499087 43.346288) scale(0.06 -0.06)">
     <use xlink:href="#DejaVuSans-1c"/>
     <use xlink:href="#DejaVuSans-1c" transform="translate(63.625 0)"/>
     <use xlink:href="#DejaVuSans-8" transform="translate(127.25 0)"/>
    </g>
   </g>
   <g id="text_44">
    <!-- 99% -->
    <g transform="translate(637.523008 44.431263) scale(0.06 -0.06)">
     <use xlink:href="#DejaVuSans-1c"/>
     <use xlink:href="#DejaVuSans-1c" transform="translate(63.625 0)"/>
     <use xlink:href="#DejaVuSans-8" transform="translate(127.25 0)"/>
    </g>
   </g>
   <g id="text_45">
    <!-- 98% -->
    <g transform="translate(706.54693 45.556422) scale(0.06 -0.06)">
     <use xlink:href="#DejaVuSans-1c"/>
     <use xlink:href="#DejaVuSans-1b" transform="translate(63.625 0)"/>
     <use xlink:href="#DejaVuSans-8" transform="translate(127.25 0)"/>
    </g>
   </g>
   <g id="text_46">
    <!-- 53% -->
    <g transform="translate(587.135545 136.031279) scale(0.06 -0.06)">
     <use xlink:href="#DejaVuSans-18"/>
     <use xlink:href="#DejaVuSans-16" transform="translate(63.625 0)"/>
     <use xlink:href="#DejaVuSans-8" transform="translate(127.25 0)"/>
    </g>
   </g>
   <g id="text_47">
    <!-- 29% -->
    <g transform="translate(656.159467 185.498101) scale(0.06 -0.06)">
     <use xlink:href="#DejaVuSans-15"/>
     <use xlink:href="#DejaVuSans-1c" transform="translate(63.625 0)"/>
     <use xlink:href="#DejaVuSans-8" transform="translate(127.25 0)"/>
    </g>
   </g>
   <g id="text_48">
    <!-- 19% -->
    <g transform="translate(725.183388 205.02765) scale(0.06 -0.06)">
     <use xlink:href="#DejaVuSans-14"/>
     <use xlink:href="#DejaVuSans-1c" transform="translate(63.625 0)"/>
     <use xlink:href="#DejaVuSans-8" transform="translate(127.25 0)"/>
    </g>
   </g>
   <g id="text_49">
    <!-- 100% -->
    <g transform="translate(603.863254 42.582787) scale(0.06 -0.06)">
     <use xlink:href="#DejaVuSans-14"/>
     <use xlink:href="#DejaVuSans-13" transform="translate(63.625 0)"/>
     <use xlink:href="#DejaVuSans-13" transform="translate(127.25 0)"/>
     <use xlink:href="#DejaVuSans-8" transform="translate(190.875 0)"/>
    </g>
   </g>
   <g id="text_50">
    <!-- 100% -->
    <g transform="translate(672.887176 42.884169) scale(0.06 -0.06)">
     <use xlink:href="#DejaVuSans-14"/>
     <use xlink:href="#DejaVuSans-13" transform="translate(63.625 0)"/>
     <use xlink:href="#DejaVuSans-13" transform="translate(127.25 0)"/>
     <use xlink:href="#DejaVuSans-8" transform="translate(190.875 0)"/>
    </g>
   </g>
   <g id="text_51">
    <!-- 100% -->
    <g transform="translate(741.911097 43.185551) scale(0.06 -0.06)">
     <use xlink:href="#DejaVuSans-14"/>
     <use xlink:href="#DejaVuSans-13" transform="translate(63.625 0)"/>
     <use xlink:href="#DejaVuSans-13" transform="translate(127.25 0)"/>
     <use xlink:href="#DejaVuSans-8" transform="translate(190.875 0)"/>
    </g>
   </g>
   <g id="text_52">
    <!-- L3 -->
    <g transform="translate(657.456967 28.56) scale(0.09 -0.09)">
     <use xlink:href="#DejaVuSans-2f"/>
     <use xlink:href="#DejaVuSans-16" transform="translate(55.71875 0)"/>
    </g>
   </g>
  </g>
  <g id="text_53">
   <!-- Code identity vs mechanism persistence across 1–3 subsequent releases -->
   <g transform="translate(212.146094 14.798437) scale(0.1 -0.1)">
    <defs>
     <path id="DejaVuSans-26" d="M 4122 4306 
L 4122 3641 
Q 3803 3938 3442 4084 
Q 3081 4231 2675 4231 
Q 1875 4231 1450 3742 
Q 1025 3253 1025 2328 
Q 1025 1406 1450 917 
Q 1875 428 2675 428 
Q 3081 428 3442 575 
Q 3803 722 4122 1019 
L 4122 359 
Q 3791 134 3420 21 
Q 3050 -91 2638 -91 
Q 1578 -91 968 557 
Q 359 1206 359 2328 
Q 359 3453 968 4101 
Q 1578 4750 2638 4750 
Q 3056 4750 3426 4639 
Q 3797 4528 4122 4306 
z
" transform="scale(0.015625)"/>
     <path id="DejaVuSans-af5" d="M 313 1978 
L 2888 1978 
L 2888 1528 
L 313 1528 
L 313 1978 
z
" transform="scale(0.015625)"/>
     <path id="DejaVuSans-45" d="M 3116 1747 
Q 3116 2381 2855 2742 
Q 2594 3103 2138 3103 
Q 1681 3103 1420 2742 
Q 1159 2381 1159 1747 
Q 1159 1113 1420 752 
Q 1681 391 2138 391 
Q 2594 391 2855 752 
Q 3116 1113 3116 1747 
z
M 1159 2969 
Q 1341 3281 1617 3432 
Q 1894 3584 2278 3584 
Q 2916 3584 3314 3078 
Q 3713 2572 3713 1747 
Q 3713 922 3314 415 
Q 2916 -91 2278 -91 
Q 1894 -91 1617 61 
Q 1341 213 1159 525 
L 1159 0 
L 581 0 
L 581 4863 
L 1159 4863 
L 1159 2969 
z
" transform="scale(0.015625)"/>
     <path id="DejaVuSans-54" d="M 947 1747 
Q 947 1113 1208 752 
Q 1469 391 1925 391 
Q 2381 391 2643 752 
Q 2906 1113 2906 1747 
Q 2906 2381 2643 2742 
Q 2381 3103 1925 3103 
Q 1469 3103 1208 2742 
Q 947 2381 947 1747 
z
M 2906 525 
Q 2725 213 2448 61 
Q 2172 -91 1784 -91 
Q 1150 -91 751 415 
Q 353 922 353 1747 
Q 353 2572 751 3078 
Q 1150 3584 1784 3584 
Q 2172 3584 2448 3432 
Q 2725 3281 2906 2969 
L 2906 3500 
L 3481 3500 
L 3481 -1331 
L 2906 -1331 
L 2906 525 
z
" transform="scale(0.015625)"/>
    </defs>
    <use xlink:href="#DejaVuSans-26"/>
    <use xlink:href="#DejaVuSans-52" transform="translate(69.828125 0)"/>
    <use xlink:href="#DejaVuSans-47" transform="translate(131.015625 0)"/>
    <use xlink:href="#DejaVuSans-48" transform="translate(194.5 0)"/>
    <use xlink:href="#DejaVuSans-3" transform="translate(256.03125 0)"/>
    <use xlink:href="#DejaVuSans-4c" transform="translate(287.8125 0)"/>
    <use xlink:href="#DejaVuSans-47" transform="translate(315.59375 0)"/>
    <use xlink:href="#DejaVuSans-48" transform="translate(379.078125 0)"/>
    <use xlink:href="#DejaVuSans-51" transform="translate(440.609375 0)"/>
    <use xlink:href="#DejaVuSans-57" transform="translate(503.984375 0)"/>
    <use xlink:href="#DejaVuSans-4c" transform="translate(543.1875 0)"/>
    <use xlink:href="#DejaVuSans-57" transform="translate(570.96875 0)"/>
    <use xlink:href="#DejaVuSans-5c" transform="translate(610.171875 0)"/>
    <use xlink:href="#DejaVuSans-3" transform="translate(669.359375 0)"/>
    <use xlink:href="#DejaVuSans-59" transform="translate(701.140625 0)"/>
    <use xlink:href="#DejaVuSans-56" transform="translate(760.328125 0)"/>
    <use xlink:href="#DejaVuSans-3" transform="translate(812.421875 0)"/>
    <use xlink:href="#DejaVuSans-50" transform="translate(844.203125 0)"/>
    <use xlink:href="#DejaVuSans-48" transform="translate(941.609375 0)"/>
    <use xlink:href="#DejaVuSans-46" transform="translate(1003.140625 0)"/>
    <use xlink:href="#DejaVuSans-4b" transform="translate(1058.125 0)"/>
    <use xlink:href="#DejaVuSans-44" transform="translate(1121.5 0)"/>
    <use xlink:href="#DejaVuSans-51" transform="translate(1182.78125 0)"/>
    <use xlink:href="#DejaVuSans-4c" transform="translate(1246.15625 0)"/>
    <use xlink:href="#DejaVuSans-56" transform="translate(1273.9375 0)"/>
    <use xlink:href="#DejaVuSans-50" transform="translate(1326.03125 0)"/>
    <use xlink:href="#DejaVuSans-3" transform="translate(1423.4375 0)"/>
    <use xlink:href="#DejaVuSans-53" transform="translate(1455.21875 0)"/>
    <use xlink:href="#DejaVuSans-48" transform="translate(1518.703125 0)"/>
    <use xlink:href="#DejaVuSans-55" transform="translate(1580.234375 0)"/>
    <use xlink:href="#DejaVuSans-56" transform="translate(1621.34375 0)"/>
    <use xlink:href="#DejaVuSans-4c" transform="translate(1673.4375 0)"/>
    <use xlink:href="#DejaVuSans-56" transform="translate(1701.21875 0)"/>
    <use xlink:href="#DejaVuSans-57" transform="translate(1753.3125 0)"/>
    <use xlink:href="#DejaVuSans-48" transform="translate(1792.515625 0)"/>
    <use xlink:href="#DejaVuSans-51" transform="translate(1854.046875 0)"/>
    <use xlink:href="#DejaVuSans-46" transform="translate(1917.421875 0)"/>
    <use xlink:href="#DejaVuSans-48" transform="translate(1972.40625 0)"/>
    <use xlink:href="#DejaVuSans-3" transform="translate(2033.9375 0)"/>
    <use xlink:href="#DejaVuSans-44" transform="translate(2065.71875 0)"/>
    <use xlink:href="#DejaVuSans-46" transform="translate(2127 0)"/>
    <use xlink:href="#DejaVuSans-55" transform="translate(2181.984375 0)"/>
    <use xlink:href="#DejaVuSans-52" transform="translate(2220.890625 0)"/>
    <use xlink:href="#DejaVuSans-56" transform="translate(2282.078125 0)"/>
    <use xlink:href="#DejaVuSans-56" transform="translate(2334.171875 0)"/>
    <use xlink:href="#DejaVuSans-3" transform="translate(2386.265625 0)"/>
    <use xlink:href="#DejaVuSans-14" transform="translate(2418.046875 0)"/>
    <use xlink:href="#DejaVuSans-af5" transform="translate(2481.671875 0)"/>
    <use xlink:href="#DejaVuSans-16" transform="translate(2531.671875 0)"/>
    <use xlink:href="#DejaVuSans-3" transform="translate(2595.296875 0)"/>
    <use xlink:href="#DejaVuSans-56" transform="translate(2627.078125 0)"/>
    <use xlink:href="#DejaVuSans-58" transform="translate(2679.171875 0)"/>
    <use xlink:href="#DejaVuSans-45" transform="translate(2742.546875 0)"/>
    <use xlink:href="#DejaVuSans-56" transform="translate(2806.03125 0)"/>
    <use xlink:href="#DejaVuSans-48" transform="translate(2858.125 0)"/>
    <use xlink:href="#DejaVuSans-54" transform="translate(2919.65625 0)"/>
    <use xlink:href="#DejaVuSans-58" transform="translate(2983.140625 0)"/>
    <use xlink:href="#DejaVuSans-48" transform="translate(3046.515625 0)"/>
    <use xlink:href="#DejaVuSans-51" transform="translate(3108.046875 0)"/>
    <use xlink:href="#DejaVuSans-57" transform="translate(3171.421875 0)"/>
    <use xlink:href="#DejaVuSans-3" transform="translate(3210.625 0)"/>
    <use xlink:href="#DejaVuSans-55" transform="translate(3242.40625 0)"/>
    <use xlink:href="#DejaVuSans-48" transform="translate(3281.3125 0)"/>
    <use xlink:href="#DejaVuSans-4f" transform="translate(3342.84375 0)"/>
    <use xlink:href="#DejaVuSans-48" transform="translate(3370.625 0)"/>
    <use xlink:href="#DejaVuSans-44" transform="translate(3432.15625 0)"/>
    <use xlink:href="#DejaVuSans-56" transform="translate(3493.4375 0)"/>
    <use xlink:href="#DejaVuSans-48" transform="translate(3545.53125 0)"/>
    <use xlink:href="#DejaVuSans-56" transform="translate(3607.0625 0)"/>
   </g>
  </g>
 </g>
 <defs>
  <clipPath id="pc9d77df02f">
   <rect x="44.103906" y="34.56" width="213.352941" height="210.672"/>
  </clipPath>
  <clipPath id="p15fd11312f">
   <rect x="300.127436" y="34.56" width="213.352941" height="210.672"/>
  </clipPath>
  <clipPath id="p41a2ec56fd">
   <rect x="556.150965" y="34.56" width="213.352941" height="210.672"/>
  </clipPath>
 </defs>
</svg>
